<svg width="20" height="40" viewBox="0 0 20 40" fill="none" xmlns="http://www.w3.org/2000/svg">
<path d="M4.79409 11.6741C4.40343 11.2834 4.40358 10.65 4.79442 10.2595L5.14799 9.9063C5.53852 9.51614 6.17134 9.51624 6.56175 9.90651L15.4866 18.8283C15.6419 18.9826 15.7651 19.1661 15.8492 19.3681C15.9333 19.5702 15.9766 19.7869 15.9766 20.0058C15.9766 20.2247 15.9333 20.4414 15.8492 20.6435C15.7651 20.8456 15.6419 21.029 15.4866 21.1833L6.56209 30.1094C6.17157 30.5 5.53836 30.5 5.14781 30.1095L4.79535 29.757C4.40485 29.3665 4.40483 28.7334 4.79529 28.3429L12.4213 20.7154C12.8118 20.3249 12.8118 19.6918 12.4213 19.3013L4.79409 11.6741Z" fill="#F5EDE2"/>
</svg>
