<svg width="20" height="40" viewBox="0 0 20 40" fill="none" xmlns="http://www.w3.org/2000/svg">
<path d="M15.2059 11.6741C15.5966 11.2834 15.5964 10.65 15.2056 10.2595L14.852 9.9063C14.4615 9.51614 13.8287 9.51624 13.4382 9.90651L4.51335 18.8283C4.3581 18.9826 4.23488 19.1661 4.1508 19.3681C4.06672 19.5702 4.02344 19.7869 4.02344 20.0058C4.02344 20.2247 4.06672 20.4414 4.1508 20.6435C4.23488 20.8456 4.3581 21.029 4.51335 21.1833L13.4379 30.1094C13.8284 30.5 14.4616 30.5 14.8522 30.1095L15.2046 29.757C15.5951 29.3665 15.5952 28.7334 15.2047 28.3429L7.57866 20.7154C7.1882 20.3249 7.18823 19.6918 7.57873 19.3013L15.2059 11.6741Z" fill="#F5EDE2"/>
</svg>
