<svg width="24" height="24" viewBox="0 0 24 24" fill="none" xmlns="http://www.w3.org/2000/svg">
<path d="M5.423 3.03796C4.139 3.03796 3.19 4.16196 3.233 5.37996C3.273 6.55096 3.22 8.06796 2.838 9.30396C2.455 10.544 1.808 11.33 0.75 11.431V12.569C1.808 12.67 2.455 13.456 2.838 14.696C3.22 15.933 3.273 17.449 3.232 18.62C3.19 19.838 4.139 20.962 5.424 20.962H18.578C19.862 20.962 20.812 19.838 20.77 18.62C20.729 17.449 20.782 15.933 21.163 14.696C21.547 13.456 22.193 12.67 23.25 12.569V11.431C22.192 11.33 21.547 10.544 21.163 9.30396C20.782 8.06796 20.729 6.55096 20.77 5.37996C20.812 4.16196 19.862 3.03796 18.578 3.03796H5.423ZM16.004 14.071C16.004 15.749 14.753 16.767 12.676 16.767H9.14C9.08985 16.7672 9.04013 16.7576 8.99373 16.7385C8.94733 16.7195 8.90516 16.6914 8.86965 16.656C8.83414 16.6206 8.80599 16.5785 8.78683 16.5322C8.76766 16.4858 8.75787 16.4361 8.758 16.386V7.61396C8.758 7.56389 8.76789 7.51432 8.78712 7.46808C8.80634 7.42185 8.83451 7.37987 8.87001 7.34455C8.9055 7.30924 8.94763 7.28129 8.99397 7.26231C9.0403 7.24333 9.08993 7.2337 9.14 7.23396H12.655C14.387 7.23396 15.524 8.17096 15.524 9.61196C15.524 10.622 14.759 11.528 13.785 11.686V11.739C15.111 11.884 16.004 12.803 16.004 14.071ZM12.29 8.44196H10.274V11.29H11.972C13.285 11.29 14.008 10.761 14.008 9.81596C14.008 8.93096 13.386 8.44196 12.29 8.44196ZM10.274 12.419V15.558H12.364C13.731 15.558 14.454 15.009 14.454 13.978C14.454 12.948 13.711 12.419 12.276 12.419H10.274Z" fill="#1B5E92"/>
</svg>
