<svg width="426" height="57" viewBox="0 0 426 57" fill="none" xmlns="http://www.w3.org/2000/svg">
<path d="M20 12.4072C20.2564 12.8466 20.5344 13.3161 20.832 13.8037C22.3643 16.3145 24.4803 19.4715 26.6465 21.6377C28.8127 23.8039 31.9697 25.9199 34.4805 27.4521C34.9678 27.7496 35.4368 28.0279 35.876 28.2842C35.4368 28.5405 34.9678 28.8188 34.4805 29.1162C31.9697 30.6484 28.8127 32.7644 26.6465 34.9307C24.4803 37.0969 22.3643 40.2539 20.832 42.7646C20.5346 43.252 20.2563 43.721 20 44.1602C19.7437 43.721 19.4654 43.252 19.168 42.7646C17.6357 40.2539 15.5197 37.0969 13.3535 34.9307C11.1873 32.7644 8.03032 30.6484 5.51953 29.1162C5.0319 28.8186 4.56242 28.5406 4.12305 28.2842C4.56242 28.0278 5.0319 27.7497 5.51953 27.4521C8.03032 25.9199 11.1873 23.8039 13.3535 21.6377C15.5197 19.4715 17.6357 16.3145 19.168 13.8037C19.4656 13.3161 19.7436 12.8466 20 12.4072Z" stroke="#F5EDE2" stroke-width="4"/>
<rect x="56" y="28.2842" width="40" height="40" transform="rotate(-45 56 28.2842)" fill="#FF8D58"/>
<path d="M148.568 12.4072C148.825 12.8466 149.103 13.3161 149.4 13.8037C150.933 16.3145 153.049 19.4715 155.215 21.6377C157.381 23.8039 160.538 25.9199 163.049 27.4521C163.536 27.7496 164.005 28.0279 164.444 28.2842C164.005 28.5405 163.536 28.8188 163.049 29.1162C160.538 30.6484 157.381 32.7644 155.215 34.9307C153.049 37.0969 150.933 40.2539 149.4 42.7646C149.103 43.252 148.825 43.721 148.568 44.1602C148.312 43.721 148.034 43.252 147.736 42.7646C146.204 40.2539 144.088 37.0969 141.922 34.9307C139.756 32.7644 136.599 30.6484 134.088 29.1162C133.6 28.8186 133.131 28.5406 132.691 28.2842C133.131 28.0278 133.6 27.7497 134.088 27.4521C136.599 25.9199 139.756 23.8039 141.922 21.6377C144.088 19.4715 146.204 16.3145 147.736 13.8037C148.034 13.3161 148.312 12.8466 148.568 12.4072Z" stroke="#F5EDE2" stroke-width="4"/>
<rect x="184.568" y="28.2842" width="40" height="40" transform="rotate(-45 184.568 28.2842)" fill="#FF8D58"/>
<path d="M277.137 12.4072C277.393 12.8466 277.671 13.3161 277.969 13.8037C279.501 16.3145 281.617 19.4715 283.783 21.6377C285.949 23.8039 289.106 25.9199 291.617 27.4521C292.105 27.7496 292.574 28.0279 293.013 28.2842C292.574 28.5405 292.105 28.8188 291.617 29.1162C289.106 30.6484 285.949 32.7644 283.783 34.9307C281.617 37.0969 279.501 40.2539 277.969 42.7646C277.671 43.252 277.393 43.721 277.137 44.1602C276.88 43.721 276.602 43.252 276.305 42.7646C274.772 40.2539 272.656 37.0969 270.49 34.9307C268.324 32.7644 265.167 30.6484 262.656 29.1162C262.169 28.8186 261.699 28.5406 261.26 28.2842C261.699 28.0278 262.169 27.7497 262.656 27.4521C265.167 25.9199 268.324 23.8039 270.49 21.6377C272.656 19.4715 274.772 16.3145 276.305 13.8037C276.602 13.3161 276.88 12.8466 277.137 12.4072Z" stroke="#F5EDE2" stroke-width="4"/>
<rect x="313.137" y="28.2842" width="40" height="40" transform="rotate(-45 313.137 28.2842)" fill="#FF8D58"/>
<path d="M405.705 12.4072C405.961 12.8466 406.24 13.3161 406.537 13.8037C408.069 16.3145 410.185 19.4715 412.352 21.6377C414.518 23.8039 417.675 25.9199 420.186 27.4521C420.673 27.7496 421.142 28.0279 421.581 28.2842C421.142 28.5405 420.673 28.8188 420.186 29.1162C417.675 30.6484 414.518 32.7644 412.352 34.9307C410.185 37.0969 408.069 40.2539 406.537 42.7646C406.24 43.252 405.961 43.721 405.705 44.1602C405.449 43.721 405.17 43.252 404.873 42.7646C403.341 40.2539 401.225 37.0969 399.059 34.9307C396.892 32.7644 393.735 30.6484 391.225 29.1162C390.737 28.8186 390.268 28.5406 389.828 28.2842C390.268 28.0278 390.737 27.7497 391.225 27.4521C393.735 25.9199 396.892 23.8039 399.059 21.6377C401.225 19.4715 403.341 16.3145 404.873 13.8037C405.171 13.3161 405.449 12.8466 405.705 12.4072Z" stroke="#F5EDE2" stroke-width="4"/>
</svg>
