<svg width="617" height="71" viewBox="0 0 617 71" fill="none" xmlns="http://www.w3.org/2000/svg">
<rect y="35.3555" width="50" height="50" transform="rotate(-45 0 35.3555)" fill="#FF8D58"/>
<path d="M111.711 14.5107C112.14 15.2597 112.632 16.102 113.177 16.9941C115.088 20.1268 117.71 24.0298 120.373 26.6934C123.037 29.3569 126.94 31.9779 130.072 33.8896C130.964 34.4339 131.806 34.9266 132.555 35.3555C131.806 35.7843 130.964 36.2771 130.072 36.8213C126.94 38.733 123.037 41.3541 120.373 44.0176C117.71 46.6811 115.088 50.5841 113.177 53.7168C112.633 54.6086 112.14 55.4505 111.711 56.1992C111.282 55.4505 110.789 54.6086 110.245 53.7168C108.333 50.5841 105.712 46.6811 103.049 44.0176C100.385 41.3541 96.4823 38.733 93.3496 36.8213C92.4575 36.2769 91.6151 35.7844 90.8662 35.3555C91.6151 34.9265 92.4575 34.434 93.3496 33.8896C96.4823 31.9779 100.385 29.3569 103.049 26.6934C105.712 24.0298 108.333 20.1268 110.245 16.9941C110.79 16.102 111.282 15.2597 111.711 14.5107Z" stroke="#F5EDE2" stroke-width="4"/>
<rect x="152.711" y="35.3555" width="50" height="50" transform="rotate(-45 152.711 35.3555)" fill="#FF8D58"/>
<path d="M264.421 14.5107C264.85 15.2597 265.342 16.102 265.887 16.9941C267.798 20.1268 270.419 24.0298 273.083 26.6934C275.747 29.3569 279.65 31.9779 282.782 33.8896C283.674 34.4339 284.516 34.9266 285.265 35.3555C284.516 35.7843 283.674 36.2771 282.782 36.8213C279.65 38.733 275.747 41.3541 273.083 44.0176C270.419 46.6811 267.798 50.5841 265.887 53.7168C265.343 54.6086 264.85 55.4505 264.421 56.1992C263.992 55.4505 263.499 54.6086 262.955 53.7168C261.043 50.5841 258.422 46.6811 255.759 44.0176C253.095 41.3541 249.192 38.733 246.06 36.8213C245.167 36.2769 244.325 35.7844 243.576 35.3555C244.325 34.9265 245.167 34.434 246.06 33.8896C249.192 31.9779 253.095 29.3569 255.759 26.6934C258.422 24.0298 261.043 20.1268 262.955 16.9941C263.499 16.102 263.992 15.2597 264.421 14.5107Z" stroke="#F5EDE2" stroke-width="4"/>
<rect x="305.421" y="35.3555" width="50" height="50" transform="rotate(-45 305.421 35.3555)" fill="#FF8D58"/>
<path d="M417.133 14.5107C417.562 15.2597 418.054 16.102 418.599 16.9941C420.51 20.1268 423.131 24.0298 425.795 26.6934C428.458 29.3569 432.361 31.9779 435.494 33.8896C436.386 34.4339 437.228 34.9266 437.977 35.3555C437.228 35.7843 436.386 36.2771 435.494 36.8213C432.361 38.733 428.458 41.3541 425.795 44.0176C423.131 46.6811 420.51 50.5841 418.599 53.7168C418.054 54.6086 417.562 55.4505 417.133 56.1992C416.704 55.4505 416.211 54.6086 415.667 53.7168C413.755 50.5841 411.134 46.6811 408.471 44.0176C405.807 41.3541 401.904 38.733 398.771 36.8213C397.879 36.2769 397.037 35.7844 396.288 35.3555C397.037 34.9265 397.879 34.434 398.771 33.8896C401.904 31.9779 405.807 29.3569 408.471 26.6934C411.134 24.0298 413.755 20.1268 415.667 16.9941C416.211 16.102 416.704 15.2597 417.133 14.5107Z" stroke="#F5EDE2" stroke-width="4"/>
<rect x="458.133" y="35.3555" width="50" height="50" transform="rotate(-45 458.133 35.3555)" fill="#FF8D58"/>
<path d="M569.842 14.5107C570.271 15.2597 570.763 16.102 571.308 16.9941C573.219 20.1268 575.84 24.0298 578.504 26.6934C581.167 29.3569 585.07 31.9779 588.203 33.8896C589.095 34.4339 589.937 34.9266 590.686 35.3555C589.937 35.7843 589.095 36.2771 588.203 36.8213C585.07 38.733 581.167 41.3541 578.504 44.0176C575.84 46.6811 573.219 50.5841 571.308 53.7168C570.763 54.6086 570.271 55.4505 569.842 56.1992C569.413 55.4505 568.92 54.6086 568.376 53.7168C566.464 50.5841 563.843 46.6811 561.18 44.0176C558.516 41.3541 554.613 38.733 551.48 36.8213C550.588 36.2769 549.746 35.7844 548.997 35.3555C549.746 34.9265 550.588 34.434 551.48 33.8896C554.613 31.9779 558.516 29.3569 561.18 26.6934C563.843 24.0298 566.464 20.1268 568.376 16.9941C568.92 16.102 569.413 15.2597 569.842 14.5107Z" stroke="#F5EDE2" stroke-width="4"/>
</svg>
