<svg width="509" height="71" viewBox="0 0 509 71" fill="none" xmlns="http://www.w3.org/2000/svg">
<path d="M25 14.5107C25.4289 15.2597 25.9214 16.102 26.4658 16.9941C28.3776 20.1268 30.9986 24.0298 33.6621 26.6934C36.3256 29.3569 40.2286 31.9779 43.3613 33.8896C44.2531 34.4339 45.095 34.9266 45.8438 35.3555C45.095 35.7843 44.2531 36.2771 43.3613 36.8213C40.2286 38.733 36.3256 41.3541 33.6621 44.0176C30.9986 46.6811 28.3776 50.5841 26.4658 53.7168C25.9216 54.6086 25.4289 55.4505 25 56.1992C24.5711 55.4505 24.0784 54.6086 23.5342 53.7168C21.6224 50.5841 19.0014 46.6811 16.3379 44.0176C13.6744 41.3541 9.77136 38.733 6.63867 36.8213C5.74658 36.2769 4.9042 35.7844 4.15527 35.3555C4.9042 34.9265 5.74658 34.434 6.63867 33.8896C9.77136 31.9779 13.6744 29.3569 16.3379 26.6934C19.0014 24.0298 21.6224 20.1268 23.5342 16.9941C24.0786 16.102 24.5711 15.2597 25 14.5107Z" stroke="#F5EDE2" stroke-width="4"/>
<rect x="66" y="35.3555" width="50" height="50" transform="rotate(-45 66 35.3555)" fill="#FF8D58"/>
<path d="M177.711 14.5107C178.14 15.2597 178.632 16.102 179.177 16.9941C181.088 20.1268 183.71 24.0298 186.373 26.6934C189.037 29.3569 192.94 31.9779 196.072 33.8896C196.964 34.4339 197.806 34.9266 198.555 35.3555C197.806 35.7843 196.964 36.2771 196.072 36.8213C192.94 38.733 189.037 41.3541 186.373 44.0176C183.71 46.6811 181.088 50.5841 179.177 53.7168C178.633 54.6086 178.14 55.4505 177.711 56.1992C177.282 55.4505 176.789 54.6086 176.245 53.7168C174.333 50.5841 171.712 46.6811 169.049 44.0176C166.385 41.3541 162.482 38.733 159.35 36.8213C158.458 36.2769 157.615 35.7844 156.866 35.3555C157.615 34.9265 158.458 34.434 159.35 33.8896C162.482 31.9779 166.385 29.3569 169.049 26.6934C171.712 24.0298 174.333 20.1268 176.245 16.9941C176.79 16.102 177.282 15.2597 177.711 14.5107Z" stroke="#F5EDE2" stroke-width="4"/>
<rect x="218.711" y="35.3555" width="50" height="50" transform="rotate(-45 218.711 35.3555)" fill="#FF8D58"/>
<path d="M330.422 14.5107C330.851 15.2597 331.343 16.102 331.888 16.9941C333.799 20.1268 336.42 24.0298 339.084 26.6934C341.748 29.3569 345.651 31.9779 348.783 33.8896C349.675 34.4339 350.517 34.9266 351.266 35.3555C350.517 35.7843 349.675 36.2771 348.783 36.8213C345.651 38.733 341.748 41.3541 339.084 44.0176C336.42 46.6811 333.799 50.5841 331.888 53.7168C331.343 54.6086 330.851 55.4505 330.422 56.1992C329.993 55.4505 329.5 54.6086 328.956 53.7168C327.044 50.5841 324.423 46.6811 321.76 44.0176C319.096 41.3541 315.193 38.733 312.061 36.8213C311.168 36.2769 310.326 35.7844 309.577 35.3555C310.326 34.9265 311.168 34.434 312.061 33.8896C315.193 31.9779 319.096 29.3569 321.76 26.6934C324.423 24.0298 327.044 20.1268 328.956 16.9941C329.5 16.102 329.993 15.2597 330.422 14.5107Z" stroke="#F5EDE2" stroke-width="4"/>
<rect x="371.422" y="35.3555" width="50" height="50" transform="rotate(-45 371.422 35.3555)" fill="#FF8D58"/>
<path d="M483.133 14.5107C483.562 15.2597 484.054 16.102 484.599 16.9941C486.51 20.1268 489.131 24.0298 491.795 26.6934C494.458 29.3569 498.361 31.9779 501.494 33.8896C502.386 34.4339 503.228 34.9266 503.977 35.3555C503.228 35.7843 502.386 36.2771 501.494 36.8213C498.361 38.733 494.458 41.3541 491.795 44.0176C489.131 46.6811 486.51 50.5841 484.599 53.7168C484.054 54.6086 483.562 55.4505 483.133 56.1992C482.704 55.4505 482.211 54.6086 481.667 53.7168C479.755 50.5841 477.134 46.6811 474.471 44.0176C471.807 41.3541 467.904 38.733 464.771 36.8213C463.879 36.2769 463.037 35.7844 462.288 35.3555C463.037 34.9265 463.879 34.434 464.771 33.8896C467.904 31.9779 471.807 29.3569 474.471 26.6934C477.134 24.0298 479.755 20.1268 481.667 16.9941C482.211 16.102 482.704 15.2597 483.133 14.5107Z" stroke="#F5EDE2" stroke-width="4"/>
</svg>
