<svg width="80" height="80" viewBox="0 0 80 80" fill="none" xmlns="http://www.w3.org/2000/svg">
<circle cx="40" cy="40" r="40" fill="#1B5E92"/>
<path d="M16.0501 37.1685C14.6838 35.4592 14.6838 32.6906 16.0501 30.9813L28.601 15.2926C29.9653 13.5873 32.1821 13.5873 33.5504 15.2926L46.0993 30.9813C47.4656 32.6906 47.4656 35.4592 46.0993 37.1685L33.5484 52.8572C32.1841 54.5625 29.9673 54.5625 28.601 52.8572L16.0501 37.1685Z" stroke="#FF8D58" stroke-width="2"/>
<path d="M33.0042 48.0191C31.6379 46.3098 31.6379 43.5412 33.0042 41.8319L45.5551 26.1432C46.9194 24.4379 49.1362 24.4379 50.5045 26.1432L63.0534 41.8319C64.4197 43.5412 64.4197 46.3098 63.0534 48.0191L50.5025 63.7078C49.1382 65.4131 46.9214 65.4131 45.5551 63.7078L33.0042 48.0191Z" stroke="#F5EDE2" stroke-width="2"/>
</svg>
