<svg width="50" height="50" viewBox="0 0 50 50" fill="none" xmlns="http://www.w3.org/2000/svg">
<path d="M18.7498 39.5832C8.33317 42.7082 8.33317 34.3748 4.1665 33.3332M33.3332 45.8332V37.7707C33.4113 36.7772 33.2771 35.7786 32.9395 34.8411C32.6018 33.9035 32.0684 33.0486 31.3748 32.3332C37.9165 31.604 44.7915 29.1248 44.7915 17.7498C44.791 14.8411 43.6721 12.044 41.6665 9.93733C42.6162 7.39255 42.5491 4.57972 41.479 2.08316C41.479 2.08316 39.0207 1.354 33.3332 5.1665C28.5582 3.87237 23.5248 3.87237 18.7498 5.1665C13.0623 1.354 10.604 2.08316 10.604 2.08316C9.53395 4.57972 9.4668 7.39255 10.4165 9.93733C8.39594 12.0596 7.27593 14.882 7.2915 17.8123C7.2915 29.104 14.1665 31.5832 20.7082 32.3957C20.0227 33.1039 19.4941 33.9486 19.1567 34.8747C18.8193 35.8007 18.6807 36.7875 18.7498 37.7707V45.8332" stroke="#FF8D58" stroke-width="2" stroke-linecap="round" stroke-linejoin="round"/>
</svg>
