<svg width="55" height="56" viewBox="0 0 55 56" fill="none" xmlns="http://www.w3.org/2000/svg">
<path d="M20.6249 44.3334C9.16659 47.8334 9.16659 38.5001 4.58325 37.3334M36.6666 51.3334V42.3034C36.7526 41.1908 36.6049 40.0723 36.2335 39.0222C35.8621 37.9722 35.2754 37.0147 34.5124 36.2134C41.7083 35.3967 49.2708 32.6201 49.2708 19.8801C49.2702 16.6223 48.0394 13.4895 45.8333 11.1301C46.8779 8.27991 46.8041 5.12954 45.627 2.33339C45.627 2.33339 42.9228 1.51672 36.6666 5.78672C31.4141 4.33731 25.8774 4.33731 20.6249 5.78672C14.3687 1.51672 11.6645 2.33339 11.6645 2.33339C10.4874 5.12954 10.4136 8.27991 11.4583 11.1301C9.23563 13.507 8.00362 16.6681 8.02075 19.9501C8.02075 32.5967 15.5833 35.3734 22.7791 36.2834C22.0251 37.0767 21.4436 38.0227 21.0725 39.0599C20.7014 40.0971 20.5489 41.2022 20.6249 42.3034V51.3334" stroke="#F5EDE2" stroke-width="2" stroke-linecap="round" stroke-linejoin="round"/>
</svg>
