<svg width="56" height="56" viewBox="0 0 56 56" fill="none" xmlns="http://www.w3.org/2000/svg">
<path d="M6.97194 48.0121H17.5719V12.3521L14.3239 10.2721C9.62394 7.26406 3.43994 10.6321 3.43994 16.2001V44.4961C3.43994 46.4401 5.02394 48.0161 6.97594 48.0161" stroke="#F5EDE2" stroke-width="1.5" stroke-linecap="round" stroke-linejoin="round"/>
<path d="M3.43994 16.2001V20.9041L17.5719 29.9561L28.1719 36.7481L38.7719 29.9561L52.9079 20.9041V16.1961C52.9079 10.6281 46.7199 7.26006 42.0159 10.2761L38.7759 12.3561L28.1719 19.1441L17.5719 12.3521L14.3239 10.2721C9.62394 7.26406 3.43994 10.6321 3.43994 16.2001Z" stroke="#F5EDE2" stroke-width="1.5" stroke-linecap="round" stroke-linejoin="round"/>
<path d="M38.772 48.0121H49.372C49.8352 48.0136 50.2943 47.9238 50.7227 47.7476C51.1512 47.5714 51.5406 47.3123 51.8688 46.9853C52.1969 46.6583 52.4572 46.2697 52.6349 45.8419C52.8125 45.414 52.904 44.9553 52.904 44.4921V16.1961C52.904 10.6281 46.72 7.26006 42.016 10.2761L38.776 12.3561L38.772 48.0121Z" stroke="#F5EDE2" stroke-width="1.5" stroke-linecap="round" stroke-linejoin="round"/>
</svg>
