<svg width="56" height="56" viewBox="0 0 56 56" fill="none" xmlns="http://www.w3.org/2000/svg">
<path d="M39.6668 4.66663H16.3334C9.89009 4.66663 4.66675 9.88997 4.66675 16.3333V39.6666C4.66675 46.11 9.89009 51.3333 16.3334 51.3333H39.6668C46.1101 51.3333 51.3334 46.11 51.3334 39.6666V16.3333C51.3334 9.88997 46.1101 4.66663 39.6668 4.66663Z" stroke="#F5EDE2" stroke-width="2" stroke-linecap="round" stroke-linejoin="round"/>
<path d="M37.3333 26.53C37.6213 28.4719 37.2896 30.4551 36.3854 32.1977C35.4812 33.9402 34.0506 35.3533 32.2971 36.2359C30.5435 37.1185 28.5563 37.4257 26.6181 37.1138C24.6799 36.8019 22.8894 35.8868 21.5013 34.4987C20.1131 33.1105 19.198 31.32 18.8861 29.3818C18.5742 27.4436 18.8815 25.4564 19.7641 23.7028C20.6467 21.9493 22.0597 20.5187 23.8023 19.6145C25.5448 18.7104 27.5281 18.3787 29.47 18.6666C31.4508 18.9604 33.2846 19.8834 34.7006 21.2994C36.1166 22.7153 37.0396 24.5492 37.3333 26.53Z" stroke="#F5EDE2" stroke-width="2" stroke-linecap="round" stroke-linejoin="round"/>
<path d="M40.8333 15.1666H40.8562" stroke="#F5EDE2" stroke-width="2" stroke-linecap="round" stroke-linejoin="round"/>
</svg>
