<svg width="50" height="50" viewBox="0 0 50 50" fill="none" xmlns="http://www.w3.org/2000/svg">
<path d="M35.4165 4.16699H14.5832C8.8302 4.16699 4.1665 8.83069 4.1665 14.5837V35.417C4.1665 41.17 8.8302 45.8337 14.5832 45.8337H35.4165C41.1695 45.8337 45.8332 41.17 45.8332 35.417V14.5837C45.8332 8.83069 41.1695 4.16699 35.4165 4.16699Z" stroke="#FF8D58" stroke-width="2" stroke-linecap="round" stroke-linejoin="round"/>
<path d="M33.3334 23.6872C33.5905 25.421 33.2943 27.1918 32.487 28.7476C31.6797 30.3034 30.4024 31.5651 28.8368 32.3531C27.2711 33.1412 25.4968 33.4155 23.7663 33.137C22.0357 32.8585 20.437 32.0415 19.1976 30.8021C17.9582 29.5627 17.1411 27.964 16.8627 26.2334C16.5842 24.5029 16.8585 22.7286 17.6466 21.1629C18.4346 19.5973 19.6963 18.3199 21.2521 17.5127C22.8079 16.7054 24.5787 16.4092 26.3125 16.6663C28.0811 16.9286 29.7185 17.7527 30.9827 19.017C32.247 20.2812 33.0711 21.9186 33.3334 23.6872Z" stroke="#FF8D58" stroke-width="2" stroke-linecap="round" stroke-linejoin="round"/>
<path d="M36.4585 13.542H36.4781" stroke="#FF8D58" stroke-width="2" stroke-linecap="round" stroke-linejoin="round"/>
</svg>
