<svg width="56" height="56" viewBox="0 0 56 56" fill="none" xmlns="http://www.w3.org/2000/svg">
<path d="M37.3333 18.6666C41.0463 18.6666 44.6072 20.1416 47.2327 22.7671C49.8583 25.3926 51.3333 28.9536 51.3333 32.6666V49H41.9999V32.6666C41.9999 31.4289 41.5083 30.242 40.6331 29.3668C39.7579 28.4916 38.5709 28 37.3333 28C36.0956 28 34.9086 28.4916 34.0334 29.3668C33.1583 30.242 32.6666 31.4289 32.6666 32.6666V49H23.3333V32.6666C23.3333 28.9536 24.8082 25.3926 27.4338 22.7671C30.0593 20.1416 33.6202 18.6666 37.3333 18.6666Z" stroke="#F5EDE2" stroke-width="2" stroke-linecap="round" stroke-linejoin="round"/>
<path d="M14.0001 21H4.66675V49H14.0001V21Z" stroke="#F5EDE2" stroke-width="2" stroke-linecap="round" stroke-linejoin="round"/>
<path d="M9.33341 14C11.9107 14 14.0001 11.9106 14.0001 9.33329C14.0001 6.75596 11.9107 4.66663 9.33341 4.66663C6.75609 4.66663 4.66675 6.75596 4.66675 9.33329C4.66675 11.9106 6.75609 14 9.33341 14Z" stroke="#F5EDE2" stroke-width="2" stroke-linecap="round" stroke-linejoin="round"/>
</svg>
