<svg width="50" height="50" viewBox="0 0 50 50" fill="none" xmlns="http://www.w3.org/2000/svg">
<path d="M33.3335 16.667C36.6487 16.667 39.8281 17.984 42.1723 20.3282C44.5165 22.6724 45.8335 25.8518 45.8335 29.167V43.7503H37.5002V29.167C37.5002 28.0619 37.0612 27.0021 36.2798 26.2207C35.4984 25.4393 34.4386 25.0003 33.3335 25.0003C32.2284 25.0003 31.1686 25.4393 30.3872 26.2207C29.6058 27.0021 29.1668 28.0619 29.1668 29.167V43.7503H20.8335V29.167C20.8335 25.8518 22.1505 22.6724 24.4947 20.3282C26.8389 17.984 30.0183 16.667 33.3335 16.667Z" stroke="#FF8D58" stroke-width="2" stroke-linecap="round" stroke-linejoin="round"/>
<path d="M12.4998 18.75H4.1665V43.75H12.4998V18.75Z" stroke="#FF8D58" stroke-width="2" stroke-linecap="round" stroke-linejoin="round"/>
<path d="M8.33317 12.5003C10.6344 12.5003 12.4998 10.6348 12.4998 8.33366C12.4998 6.03247 10.6344 4.16699 8.33317 4.16699C6.03198 4.16699 4.1665 6.03247 4.1665 8.33366C4.1665 10.6348 6.03198 12.5003 8.33317 12.5003Z" stroke="#FF8D58" stroke-width="2" stroke-linecap="round" stroke-linejoin="round"/>
</svg>
