<svg width="66" height="59" viewBox="0 0 66 59" fill="none" xmlns="http://www.w3.org/2000/svg">
<path d="M9.05007 27.1685C7.68383 25.4592 7.68383 22.6906 9.05007 20.9813L21.601 5.29264C22.9653 3.58735 25.1821 3.58735 26.5504 5.29264L39.0993 20.9813C40.4656 22.6906 40.4656 25.4592 39.0993 27.1685L26.5484 42.8572C25.1841 44.5625 22.9673 44.5625 21.601 42.8572L9.05007 27.1685Z" stroke="#FF8D58" stroke-width="2"/>
<path d="M26.0042 38.0191C24.6379 36.3098 24.6379 33.5412 26.0042 31.8319L38.5551 16.1432C39.9194 14.4379 42.1362 14.4379 43.5045 16.1432L56.0534 31.8319C57.4197 33.5412 57.4197 36.3098 56.0534 38.0191L43.5025 53.7078C42.1382 55.4131 39.9214 55.4131 38.5551 53.7078L26.0042 38.0191Z" stroke="#F5EDE2" stroke-width="2"/>
</svg>
