<svg width="116" height="20" viewBox="0 0 116 20" fill="none" xmlns="http://www.w3.org/2000/svg">
<path d="M10 0C10 0 12.0415 3.9805 14.0305 5.96949C16.0195 7.95848 20 10 20 10C20 10 16.0195 12.0415 14.0305 14.0305C12.0415 16.0195 10 20 10 20C10 20 7.95848 16.0195 5.96949 14.0305C3.9805 12.0415 0 10 0 10C0 10 3.9805 7.95848 5.96949 5.96949C7.95848 3.9805 10 0 10 0Z" fill="#FF8D58"/>
<path d="M34 0C34 0 36.0415 3.9805 38.0305 5.96949C40.0195 7.95848 44 10 44 10C44 10 40.0195 12.0415 38.0305 14.0305C36.0415 16.0195 34 20 34 20C34 20 31.9585 16.0195 29.9695 14.0305C27.9805 12.0415 24 10 24 10C24 10 27.9805 7.95848 29.9695 5.96949C31.9585 3.9805 34 0 34 0Z" fill="#FF8D58"/>
<path d="M58 0C58 0 60.0415 3.9805 62.0305 5.96949C64.0195 7.95848 68 10 68 10C68 10 64.0195 12.0415 62.0305 14.0305C60.0415 16.0195 58 20 58 20C58 20 55.9585 16.0195 53.9695 14.0305C51.9805 12.0415 48 10 48 10C48 10 51.9805 7.95848 53.9695 5.96949C55.9585 3.9805 58 0 58 0Z" fill="#FF8D58"/>
<path d="M82 0C82 0 84.0415 3.9805 86.0305 5.96949C88.0195 7.95848 92 10 92 10C92 10 88.0195 12.0415 86.0305 14.0305C84.0415 16.0195 82 20 82 20C82 20 79.9585 16.0195 77.9695 14.0305C75.9805 12.0415 72 10 72 10C72 10 75.9805 7.95848 77.9695 5.96949C79.9585 3.9805 82 0 82 0Z" fill="#FF8D58"/>
<path d="M106 0C106 0 108.042 3.9805 110.031 5.96949C112.019 7.95848 116 10 116 10C116 10 112.019 12.0415 110.031 14.0305C108.042 16.0195 106 20 106 20C106 20 103.958 16.0195 101.969 14.0305C99.9805 12.0415 96 10 96 10C96 10 99.9805 7.95848 101.969 5.96949C103.958 3.9805 106 0 106 0Z" fill="#8DAFC8"/>
</svg>
