<svg width="24" height="24" viewBox="0 0 24 24" fill="none" xmlns="http://www.w3.org/2000/svg">
<path d="M12.929 4.294L16.729 6.487C16.865 6.564 16.87 6.777 16.729 6.854L12.214 9.462C12.1495 9.4998 12.0762 9.51972 12.0015 9.51972C11.9268 9.51972 11.8534 9.4998 11.789 9.462L7.27398 6.854C7.13498 6.78 7.13298 6.561 7.27398 6.487L11.071 4.294V0L1.37598 5.598V16.793L5.09398 14.647V10.262C5.09098 10.105 5.27398 9.993 5.41098 10.078L9.92598 12.685C9.99052 12.7225 10.0442 12.7761 10.0817 12.8407C10.1192 12.9052 10.1393 12.9784 10.14 13.053V18.266C10.142 18.422 9.95898 18.534 9.82198 18.45L6.02198 16.257L2.30498 18.402L12 24L21.695 18.402L17.978 16.257L14.178 18.449C14.044 18.531 13.855 18.425 13.86 18.266V13.053C13.86 12.897 13.947 12.757 14.074 12.685L18.589 10.078C18.723 9.996 18.911 10.1 18.907 10.262V14.647L22.624 16.793V5.598L12.93 0L12.929 4.294Z" fill="#1B5E92"/>
</svg>
