<svg width="30" height="30" viewBox="0 0 30 30" fill="none" xmlns="http://www.w3.org/2000/svg">
<path d="M15 3.0918C15.1923 3.42143 15.4008 3.77379 15.624 4.13965C16.7732 6.02274 18.3607 8.38998 19.9854 10.0146C21.61 11.6393 23.9773 13.2268 25.8604 14.376C26.2262 14.5992 26.5786 14.8077 26.9082 15C26.5786 15.1923 26.2262 15.4008 25.8604 15.624C23.9773 16.7732 21.61 18.3607 19.9854 19.9854C18.3607 21.61 16.7732 23.9773 15.624 25.8604C15.4008 26.2262 15.1923 26.5786 15 26.9082C14.8077 26.5786 14.5992 26.2262 14.376 25.8604C13.2268 23.9773 11.6393 21.61 10.0146 19.9854C8.38998 18.3607 6.02274 16.7732 4.13965 15.624C3.77379 15.4008 3.42143 15.1923 3.0918 15C3.42143 14.8077 3.77379 14.5992 4.13965 14.376C6.02274 13.2268 8.38998 11.6393 10.0146 10.0146C11.6393 8.38998 13.2268 6.02274 14.376 4.13965C14.5992 3.77379 14.8077 3.42143 15 3.0918Z" stroke="#F5EDE2" stroke-width="3"/>
</svg>
