<?xml version="1.0" encoding="utf-8"?>
<!-- created with cmmn-js / http://bpmn.io -->
<!DOCTYPE svg PUBLIC "-//W3C//DTD SVG 1.1//EN" "http://www.w3.org/Graphics/SVG/1.1/DTD/svg11.dtd">
<svg xmlns="http://www.w3.org/2000/svg" xmlns:xlink="http://www.w3.org/1999/xlink" width="1033" height="715" viewBox="197 79 1033 715" version="1.1"><defs><marker id="association-start" viewBox="0 0 20 20" refX="1" refY="10" markerWidth="10" markerHeight="10" orient="auto"><path d="M 11 5 L 1 10 L 11 15" style="fill: none; stroke-width: 1.5px; stroke-linecap: round; stroke-dasharray: 10000, 1; stroke: black;"></path></marker><marker id="association-end" viewBox="0 0 20 20" refX="12" refY="10" markerWidth="10" markerHeight="10" orient="auto"><path d="M 1 5 L 11 10 L 1 15" style="fill: none; stroke-width: 1.5px; stroke-linecap: round; stroke-dasharray: 10000, 1; stroke: black;"></path></marker></defs><g class="djs-group"><g class="djs-element djs-shape" data-element-id="CasePlanModel_0fva2jj" style="display: block;" transform="matrix(1 0 0 1 203 103)"><g class="djs-visual"><rect x="0" y="0" width="1011" height="685" rx="0" ry="0" style="stroke: black; stroke-width: 2px; fill: white; fill-opacity: 0.95;"/><polygon points="10,0 20,-18 101.34259414672852,-18 111.34259414672852,0" style="fill: white; stroke: black; stroke-width: 2px; fill-opacity: 0.95; pointer-events: all;"/><text class="djs-label" style="font-family: Arial, sans-serif; font-size: 12px;" transform="matrix(1 0 0 1 25 -13)"><tspan x="0" y="10.000000476837158">Pagamento</tspan></text></g><rect x="0" y="0" width="1011" height="685" class="djs-hit" style="fill: none; stroke-opacity: 0; stroke: white; stroke-width: 15px;"/><rect x="-6" y="-24" width="1023" height="715" class="djs-outline" style="fill: none;"/></g><g class="djs-children"><g class="djs-group"><g class="djs-element djs-shape" data-element-id="PlanItem_12o8usv" style="display: block;" transform="matrix(1 0 0 1 446 295)"><g class="djs-visual"><polygon points="20,457 0,437 0,20 20,0 483,0 503,20 503,437 483,457" style="fill-opacity: 0.95; fill: white; stroke: black; stroke-width: 2px;"/><text class="djs-label" style="font-family: Arial, sans-serif; font-size: 12px;" transform="matrix(1 0 0 1 20 0)"><tspan x="5" y="15.000000476837158">Pagamento</tspan></text><rect x="0" y="0" width="30" height="24" rx="0" ry="0" style="stroke: black; stroke-width: 1.5px; fill: white;" transform="matrix(1 0 0 1 236.5 -17)"/><path d="m236.5,-17 m 0,12 l 30,0 m -20,-12 l 0, 24 m 10, -24 l 0, 24 m -10, -6 l 10,0" style="fill: none; stroke-width: 1.5px; stroke: black;"/><rect x="0" y="0" width="14" height="14" rx="0" ry="0" style="stroke: black; stroke-width: 1px; fill: white;" transform="matrix(1 0 0 1 244.5 440)"/><path d="m244.5,440 m 2,7 l 10,0" style="fill: none; stroke-width: 2px; stroke: black;"/></g><rect x="0" y="0" width="503" height="457" class="djs-hit" style="fill: none; stroke-opacity: 0; stroke: white; stroke-width: 15px;"/><rect x="-6" y="-6" width="515" height="469" class="djs-outline" style="fill: none;"/></g><g class="djs-children"><g class="djs-group"><g class="djs-element djs-shape" data-element-id="PlanItem_1ti1w8j" style="display: block;" transform="matrix(1 0 0 1 578 334)"><g class="djs-visual"><rect x="0" y="0" width="100" height="80" rx="10" ry="10" style="stroke: black; stroke-width: 2px; fill: white;"/><text class="djs-label" style="font-family: Arial, sans-serif; font-size: 12px;"><tspan x="24.999998092651367" y="36.66666650772095">Scegliere </tspan><tspan x="29.994211196899414" y="50.00000047683716">metodo</tspan></text><path d="m 8,8 0,4 20,0 0,-4 z" style="stroke-width: 1px; stroke: black;"/><path d="m 8,8 0,12 20,0 0,-12 zm 0,8 l 20,0 m -13,-4 l 0,8" style="fill: none; stroke-width: 1px; stroke: black;"/></g><rect x="0" y="0" width="100" height="80" class="djs-hit" style="fill: none; stroke-opacity: 0; stroke: white; stroke-width: 15px;"/><rect x="-6" y="-6" width="112" height="92" class="djs-outline" style="fill: none;"/></g></g><g class="djs-group"><g class="djs-element djs-shape" data-element-id="PlanItem_0i6ion8" style="display: block;" transform="matrix(1 0 0 1 621 696)"><g class="djs-visual"><circle cx="18" cy="18" r="18" style="stroke: black; stroke-width: 2px; fill: white;"/><circle cx="18" cy="18" r="14" style="stroke: black; stroke-width: 2px; fill: white;"/><path d="m 20,15 c 0.909,-0.845 1.594,-2.049 1.594,-3.385 0,-2.554 -1.805,-4.62199999 -4.357,-4.62199999 -2.55199998,0 -4.28799998,2.06799999 -4.28799998,4.62199999 0,1.348 0.974,2.562 1.89599998,3.405 -0.52899998,0.187 -5.669,2.097 -5.794,4.7560005 v 6.718 h 17 v -6.718 c 0,-2.2980005 -5.5279996,-4.5950005 -6.0509996,-4.7760005 zm -8,6 l 0,5.5 m 11,0 l 0,-5" style="fill: none; stroke-width: 0.5px; stroke: black;"/><path d="m 20,15 m 2.162,1.009 c 0,2.4470005 -2.158,4.4310005 -4.821,4.4310005 -2.66499998,0 -4.822,-1.981 -4.822,-4.4310005" style="fill: none; stroke-width: 0.5px; stroke: black;"/><path d="m 20,15 m -6.9,-3.80 c 0,0 2.25099998,-2.358 4.27399998,-1.177 2.024,1.181 4.221,1.537 4.124,0.965 -0.098,-0.57 -0.117,-3.79099999 -4.191,-4.13599999 -3.57499998,0.001 -4.20799998,3.36699999 -4.20699998,4.34799999 z" style="fill: black; stroke-width: 0.5px; stroke: black;"/></g><rect x="0" y="0" width="36" height="36" class="djs-hit" style="fill: none; stroke-opacity: 0; stroke: white; stroke-width: 15px;"/><rect x="-6" y="-6" width="48" height="48" class="djs-outline" style="fill: none;"/></g></g><g class="djs-group"><g class="djs-element djs-shape" data-element-id="PlanItem_0i6ion8_label" style="display: block;" transform="matrix(1 0 0 1 600 732)"><g class="djs-visual"><text class="djs-label" style="font-family: Arial, sans-serif; font-size: 11px;" transform="translate(-6.853233337402344,0)"><tspan x="6.853233337402344" y="8.88888931274414">Commercialista</tspan></text></g><rect x="0" y="0" width="77" height="12" class="djs-hit" style="fill: none; stroke-opacity: 0; stroke: white; stroke-width: 15px;"/><rect x="-6" y="-6" width="89" height="24" class="djs-outline" style="fill: none;"/></g></g><g class="djs-group"><g class="djs-element djs-shape" data-element-id="PlanItem_0oma7gt" style="display: block;" transform="matrix(1 0 0 1 811 334)"><g class="djs-visual"><rect x="0" y="0" width="100" height="80" rx="10" ry="10" style="stroke: black; stroke-width: 2px; fill: white;"/><text class="djs-label" style="font-family: Arial, sans-serif; font-size: 12px;"><tspan x="30.70601749420166" y="36.66666650772095">Verifica </tspan><tspan x="19.994211196899414" y="50.00000047683716">pagamento</tspan></text><path d="m33, 63 l 14,7 l -14,7 l 0,-14 z" style="fill: none; stroke-width: 1px; stroke: black;"/><path d="m53,63 m 3,0 l 0,14 m 6,-14 l 0,14 m -10,-10 l 14,0 m -14,6 l 14,0" style="fill: none; stroke-width: 2px; stroke: black;"/></g><rect x="0" y="0" width="100" height="80" class="djs-hit" style="fill: none; stroke-opacity: 0; stroke: white; stroke-width: 15px;"/><rect x="-6" y="-6" width="112" height="92" class="djs-outline" style="fill: none;"/></g></g><g class="djs-group"><g class="djs-element djs-shape" data-element-id="PlanItem_19pujal" style="display: block;" transform="matrix(1 0 0 1 481 356)"><g class="djs-visual"><circle cx="18" cy="18" r="18" style="stroke: black; stroke-width: 2px; fill: white;"/><circle cx="18" cy="18" r="14" style="stroke: black; stroke-width: 2px; fill: white;"/><path d="m 20,15 c 0.909,-0.845 1.594,-2.049 1.594,-3.385 0,-2.554 -1.805,-4.62199999 -4.357,-4.62199999 -2.55199998,0 -4.28799998,2.06799999 -4.28799998,4.62199999 0,1.348 0.974,2.562 1.89599998,3.405 -0.52899998,0.187 -5.669,2.097 -5.794,4.7560005 v 6.718 h 17 v -6.718 c 0,-2.2980005 -5.5279996,-4.5950005 -6.0509996,-4.7760005 zm -8,6 l 0,5.5 m 11,0 l 0,-5" style="fill: none; stroke-width: 0.5px; stroke: black;"/><path d="m 20,15 m 2.162,1.009 c 0,2.4470005 -2.158,4.4310005 -4.821,4.4310005 -2.66499998,0 -4.822,-1.981 -4.822,-4.4310005" style="fill: none; stroke-width: 0.5px; stroke: black;"/><path d="m 20,15 m -6.9,-3.80 c 0,0 2.25099998,-2.358 4.27399998,-1.177 2.024,1.181 4.221,1.537 4.124,0.965 -0.098,-0.57 -0.117,-3.79099999 -4.191,-4.13599999 -3.57499998,0.001 -4.20799998,3.36699999 -4.20699998,4.34799999 z" style="fill: black; stroke-width: 0.5px; stroke: black;"/></g><rect x="0" y="0" width="36" height="36" class="djs-hit" style="fill: none; stroke-opacity: 0; stroke: white; stroke-width: 15px;"/><rect x="-6" y="-6" width="48" height="48" class="djs-outline" style="fill: none;"/></g></g><g class="djs-group"><g class="djs-element djs-shape" data-element-id="PlanItem_19pujal_label" style="display: block;" transform="matrix(1 0 0 1 481 392)"><g class="djs-visual"><text class="djs-label" style="font-family: Arial, sans-serif; font-size: 11px;" transform="translate(-27.614625930786133,0)"><tspan x="27.614625930786133" y="8.88888931274414">Cliente</tspan></text></g><rect x="0" y="0" width="35" height="12" class="djs-hit" style="fill: none; stroke-opacity: 0; stroke: white; stroke-width: 15px;"/><rect x="-6" y="-6" width="47" height="24" class="djs-outline" style="fill: none;"/></g></g><g class="djs-group"><g class="djs-element djs-shape" data-element-id="PlanItem_1d54icr" style="display: block;" transform="matrix(1 0 0 1 690 453)"><g class="djs-visual"><rect x="0" y="0" width="100" height="80" rx="10" ry="10" style="stroke: black; stroke-width: 2px; fill: white;"/><text class="djs-label" style="font-family: Arial, sans-serif; font-size: 12px;"><tspan x="24.103008270263672" y="36.66666650772095">Effettuare </tspan><tspan x="19.994211196899414" y="50.00000047683716">pagamento</tspan></text><path d="m43,63 m 3,0 l 0,14 m 6,-14 l 0,14 m -10,-10 l 14,0 m -14,6 l 14,0" style="fill: none; stroke-width: 2px; stroke: black;"/></g><rect x="0" y="0" width="100" height="80" class="djs-hit" style="fill: none; stroke-opacity: 0; stroke: white; stroke-width: 15px;"/><rect x="-6" y="-6" width="112" height="92" class="djs-outline" style="fill: none;"/></g></g><g class="djs-group"><g class="djs-element djs-shape" data-element-id="PlanItem_1lsj2vo" style="display: block;" transform="matrix(1 0 0 1 589 572)"><g class="djs-visual"><rect x="0" y="0" width="100" height="80" rx="10" ry="10" style="stroke: black; stroke-width: 2px; fill: white; stroke-dasharray: 12, 12.4; stroke-dashoffset: 13.6;"/><text class="djs-label" style="font-family: Arial, sans-serif; font-size: 12px;"><tspan x="12.337959289550781" y="29.999999523162842">Rilasciare dati </tspan><tspan x="22.667821884155273" y="43.33333349227905">per fattura </tspan><tspan x="22.33217430114746" y="56.666667461395264">elettronica</tspan></text></g><rect x="0" y="0" width="100" height="80" class="djs-hit" style="fill: none; stroke-opacity: 0; stroke: white; stroke-width: 15px;"/><rect x="-6" y="-6" width="112" height="92" class="djs-outline" style="fill: none;"/></g></g><g class="djs-group"><g class="djs-element djs-shape" data-element-id="CaseFileItem_1ny2wpz" style="display: block;" transform="matrix(1 0 0 1 861 500)"><g class="djs-visual"><path d="m 0,0 28.23529411764706,0 7.058823529411765,8.196721311475411 0,40.98360655737705 -35.294117647058826,0 0,-49.18032786885246 28.23529411764706,0 0,8.196721311475411 7.058823529411765,0" style="fill: white; stroke-width: 2px; stroke: black;"/></g><rect x="0" y="0" width="36" height="50" class="djs-hit" style="fill: none; stroke-opacity: 0; stroke: white; stroke-width: 15px;"/><rect x="-6" y="-6" width="48" height="62" class="djs-outline" style="fill: none;"/></g></g><g class="djs-group"><g class="djs-element djs-shape" data-element-id="CaseFileItem_1ny2wpz_label" style="display: block;" transform="matrix(1 0 0 1 849 553)"><g class="djs-visual"><text class="djs-label" style="font-family: Arial, sans-serif; font-size: 11px;" transform="translate(-17.220508575439453,0)"><tspan x="17.806711196899414" y="8.88888931274414">Ricevuta di </tspan><tspan x="17.220508575439453" y="20.740741729736328">pagamento</tspan></text></g><rect x="0" y="0" width="59" height="24" class="djs-hit" style="fill: none; stroke-opacity: 0; stroke: white; stroke-width: 15px;"/><rect x="-6" y="-6" width="71" height="36" class="djs-outline" style="fill: none;"/></g></g><g class="djs-group"><g class="djs-element djs-shape" data-element-id="EntryCriterion_0em6baf" style="display: block;" transform="matrix(1 0 0 1 629 638)"><g class="djs-visual"><polygon points="10,0 20,14 10,28 0,14" style="stroke: black; stroke-width: 2px; fill: white;"/></g><rect x="0" y="0" width="20" height="28" class="djs-hit" style="fill: none; stroke-opacity: 0; stroke: white; stroke-width: 15px;"/><rect x="-6" y="-6" width="32" height="40" class="djs-outline" style="fill: none;"/></g></g><g class="djs-group"><g class="djs-element djs-shape" data-element-id="EntryCriterion_1e3pxbg" style="display: block;" transform="matrix(1 0 0 1 626 558)"><g class="djs-visual"><polygon points="10,0 20,14 10,28 0,14" style="stroke: black; stroke-width: 2px; fill: white;"/></g><rect x="0" y="0" width="20" height="28" class="djs-hit" style="fill: none; stroke-opacity: 0; stroke: white; stroke-width: 15px;"/><rect x="-6" y="-6" width="32" height="40" class="djs-outline" style="fill: none;"/></g></g><g class="djs-group"><g class="djs-element djs-shape" data-element-id="EntryCriterion_07e65jg" style="display: block;" transform="matrix(1 0 0 1 679 597)"><g class="djs-visual"><polygon points="10,0 20,14 10,28 0,14" style="stroke: black; stroke-width: 2px; fill: black;"/></g><rect x="0" y="0" width="20" height="28" class="djs-hit" style="fill: none; stroke-opacity: 0; stroke: white; stroke-width: 15px;"/><rect x="-6" y="-6" width="32" height="40" class="djs-outline" style="fill: none;"/></g></g><g class="djs-group"><g class="djs-element djs-shape" data-element-id="EntryCriterion_0n01mch" style="display: block;" transform="matrix(1 0 0 1 680 481)"><g class="djs-visual"><polygon points="10,0 20,14 10,28 0,14" style="stroke: black; stroke-width: 2px; fill: white;"/></g><rect x="0" y="0" width="20" height="28" class="djs-hit" style="fill: none; stroke-opacity: 0; stroke: white; stroke-width: 15px;"/><rect x="-6" y="-6" width="32" height="40" class="djs-outline" style="fill: none;"/></g></g><g class="djs-group"><g class="djs-element djs-shape" data-element-id="EntryCriterion_1si1o9c" style="display: block;" transform="matrix(1 0 0 1 780 476)"><g class="djs-visual"><polygon points="10,0 20,14 10,28 0,14" style="stroke: black; stroke-width: 2px; fill: white;"/></g><rect x="0" y="0" width="20" height="28" class="djs-hit" style="fill: none; stroke-opacity: 0; stroke: white; stroke-width: 15px;"/><rect x="-6" y="-6" width="32" height="40" class="djs-outline" style="fill: none;"/></g></g><g class="djs-group"><g class="djs-element djs-shape" data-element-id="EntryCriterion_0vc1wkp" style="display: block;" transform="matrix(1 0 0 1 801 361)"><g class="djs-visual"><polygon points="10,0 20,14 10,28 0,14" style="stroke: black; stroke-width: 2px; fill: white;"/></g><rect x="0" y="0" width="20" height="28" class="djs-hit" style="fill: none; stroke-opacity: 0; stroke: white; stroke-width: 15px;"/><rect x="-6" y="-6" width="32" height="40" class="djs-outline" style="fill: none;"/></g></g><g class="djs-group"><g class="djs-element djs-shape" data-element-id="EntryCriterion_1isgrqz" style="display: block;" transform="matrix(1 0 0 1 877 400)"><g class="djs-visual"><polygon points="10,0 20,14 10,28 0,14" style="stroke: black; stroke-width: 2px; fill: black;"/></g><rect x="0" y="0" width="20" height="28" class="djs-hit" style="fill: none; stroke-opacity: 0; stroke: white; stroke-width: 15px;"/><rect x="-6" y="-6" width="32" height="40" class="djs-outline" style="fill: none;"/></g></g><g class="djs-group"><g class="djs-element djs-shape" data-element-id="EntryCriterion_1xkrtzs" style="display: block;" transform="matrix(1 0 0 1 568 361)"><g class="djs-visual"><polygon points="10,0 20,14 10,28 0,14" style="stroke: black; stroke-width: 2px; fill: white;"/></g><rect x="0" y="0" width="20" height="28" class="djs-hit" style="fill: none; stroke-opacity: 0; stroke: white; stroke-width: 15px;"/><rect x="-6" y="-6" width="32" height="40" class="djs-outline" style="fill: none;"/></g></g></g></g><g class="djs-group"><g class="djs-element djs-shape" data-element-id="PlanItem_0pefi26" style="display: block;" transform="matrix(1 0 0 1 1035 504)"><g class="djs-visual"><rect x="0" y="0" width="100" height="40" rx="24" ry="24" style="stroke: black; stroke-width: 2px; fill: white;"/><text class="djs-label" style="font-family: Arial, sans-serif; font-size: 12px;"><tspan x="19.328702926635742" y="16.666666507720947">Pagamento </tspan><tspan x="25.10416603088379" y="30.000000476837158">effettuato</tspan></text></g><rect x="0" y="0" width="100" height="40" class="djs-hit" style="fill: none; stroke-opacity: 0; stroke: white; stroke-width: 15px;"/><rect x="-6" y="-6" width="112" height="52" class="djs-outline" style="fill: none;"/></g></g><g class="djs-group"><g class="djs-element djs-shape" data-element-id="PlanItem_1ysyet3" style="display: block;" transform="matrix(1 0 0 1 594 123)"><g class="djs-visual"><rect x="0" y="0" width="100" height="80" rx="10" ry="10" style="stroke: black; stroke-width: 2px; fill: white;"/><text class="djs-label" style="font-family: Arial, sans-serif; font-size: 12px;"><tspan x="5.144675254821777" y="43.33333349227905">Avere portafoglio</tspan></text><path d="m49.5,63 l 0,9 m 0,2 l0,3" style="fill: none; stroke-width: 3px; stroke: black;"/><path d="m 15,12 c 0.909,-0.845 1.594,-2.049 1.594,-3.385 0,-2.554 -1.805,-4.62199999 -4.357,-4.62199999 -2.55199998,0 -4.28799998,2.06799999 -4.28799998,4.62199999 0,1.348 0.974,2.562 1.89599998,3.405 -0.52899998,0.187 -5.669,2.097 -5.794,4.7560005 v 6.718 h 17 v -6.718 c 0,-2.2980005 -5.5279996,-4.5950005 -6.0509996,-4.7760005 zm -8,6 l 0,5.5 m 11,0 l 0,-5" style="fill: none; stroke-width: 0.5px; stroke: black;"/><path d="m 15,12 m 2.162,1.009 c 0,2.4470005 -2.158,4.4310005 -4.821,4.4310005 -2.66499998,0 -4.822,-1.981 -4.822,-4.4310005" style="fill: none; stroke-width: 0.5px; stroke: black;"/><path d="m 15,12 m -6.9,-3.80 c 0,0 2.25099998,-2.358 4.27399998,-1.177 2.024,1.181 4.221,1.537 4.124,0.965 -0.098,-0.57 -0.117,-3.79099999 -4.191,-4.13599999 -3.57499998,0.001 -4.20799998,3.36699999 -4.20699998,4.34799999 z" style="fill: black; stroke-width: 0.5px; stroke: black;"/></g><rect x="0" y="0" width="100" height="80" class="djs-hit" style="fill: none; stroke-opacity: 0; stroke: white; stroke-width: 15px;"/><rect x="-6" y="-6" width="112" height="92" class="djs-outline" style="fill: none;"/></g></g><g class="djs-group"><g class="djs-element djs-shape" data-element-id="PlanItem_0pn0cng" style="display: block;" transform="matrix(1 0 0 1 241 484)"><g class="djs-visual"><rect x="0" y="0" width="100" height="80" rx="10" ry="10" style="stroke: black; stroke-width: 2px; fill: white;"/><text class="djs-label" style="font-family: Arial, sans-serif; font-size: 12px;"><tspan x="11.001155853271484" y="43.33333349227905">Ordinare pizza</tspan></text><path d="m49.5,63 l 0,9 m 0,2 l0,3" style="fill: none; stroke-width: 3px; stroke: black;"/><path d="m 15,12 c 0.909,-0.845 1.594,-2.049 1.594,-3.385 0,-2.554 -1.805,-4.62199999 -4.357,-4.62199999 -2.55199998,0 -4.28799998,2.06799999 -4.28799998,4.62199999 0,1.348 0.974,2.562 1.89599998,3.405 -0.52899998,0.187 -5.669,2.097 -5.794,4.7560005 v 6.718 h 17 v -6.718 c 0,-2.2980005 -5.5279996,-4.5950005 -6.0509996,-4.7760005 zm -8,6 l 0,5.5 m 11,0 l 0,-5" style="fill: none; stroke-width: 0.5px; stroke: black;"/><path d="m 15,12 m 2.162,1.009 c 0,2.4470005 -2.158,4.4310005 -4.821,4.4310005 -2.66499998,0 -4.822,-1.981 -4.822,-4.4310005" style="fill: none; stroke-width: 0.5px; stroke: black;"/><path d="m 15,12 m -6.9,-3.80 c 0,0 2.25099998,-2.358 4.27399998,-1.177 2.024,1.181 4.221,1.537 4.124,0.965 -0.098,-0.57 -0.117,-3.79099999 -4.191,-4.13599999 -3.57499998,0.001 -4.20799998,3.36699999 -4.20699998,4.34799999 z" style="fill: black; stroke-width: 0.5px; stroke: black;"/></g><rect x="0" y="0" width="100" height="80" class="djs-hit" style="fill: none; stroke-opacity: 0; stroke: white; stroke-width: 15px;"/><rect x="-6" y="-6" width="112" height="92" class="djs-outline" style="fill: none;"/></g></g><g class="djs-group"><g class="djs-element djs-shape" data-element-id="EntryCriterion_0wz5jfg" style="display: block;" transform="matrix(1 0 0 1 436 511)"><g class="djs-visual"><polygon points="10,0 20,14 10,28 0,14" style="stroke: black; stroke-width: 2px; fill: white;"/></g><rect x="0" y="0" width="20" height="28" class="djs-hit" style="fill: none; stroke-opacity: 0; stroke: white; stroke-width: 15px;"/><rect x="-6" y="-6" width="32" height="40" class="djs-outline" style="fill: none;"/></g></g><g class="djs-group"><g class="djs-element djs-shape" data-element-id="EntryCriterion_04jqhzz" style="display: block;" transform="matrix(1 0 0 1 634 281)"><g class="djs-visual"><polygon points="10,0 20,14 10,28 0,14" style="stroke: black; stroke-width: 2px; fill: white;"/></g><rect x="0" y="0" width="20" height="28" class="djs-hit" style="fill: none; stroke-opacity: 0; stroke: white; stroke-width: 15px;"/><rect x="-6" y="-6" width="32" height="40" class="djs-outline" style="fill: none;"/></g></g><g class="djs-group"><g class="djs-element djs-shape" data-element-id="EntryCriterion_0s8so61" style="display: block;" transform="matrix(1 0 0 1 939 510)"><g class="djs-visual"><polygon points="10,0 20,14 10,28 0,14" style="stroke: black; stroke-width: 2px; fill: black;"/></g><rect x="0" y="0" width="20" height="28" class="djs-hit" style="fill: none; stroke-opacity: 0; stroke: white; stroke-width: 15px;"/><rect x="-6" y="-6" width="32" height="40" class="djs-outline" style="fill: none;"/></g></g><g class="djs-group"><g class="djs-element djs-shape" data-element-id="ExitCriterion_1s78j3n" style="display: block;" transform="matrix(1 0 0 1 1204 475)"><g class="djs-visual"><polygon points="10,0 20,14 10,28 0,14" style="stroke: black; stroke-width: 2px; fill: black;"/></g><rect x="0" y="0" width="20" height="28" class="djs-hit" style="fill: none; stroke-opacity: 0; stroke: white; stroke-width: 15px;"/><rect x="-6" y="-6" width="32" height="40" class="djs-outline" style="fill: none;"/></g></g><g class="djs-group"><g class="djs-element djs-connection" data-element-id="PlanItemOnPart_06mdfck_di" style="display: block;"><g class="djs-visual"><path d="m  644,203L644,281 " style="fill: none; stroke-width: 1.5px; stroke: black; stroke-dasharray: 10, 5, 2, 5, 2, 5;"/></g><polyline points="644,203 644,281 " class="djs-hit" style="fill: none; stroke-opacity: 0; stroke: white; stroke-width: 15px;"/><rect x="638" y="197" width="12" height="90" class="djs-outline" style="fill: none;"/></g></g><g class="djs-group"><g class="djs-element djs-shape" data-element-id="PlanItemOnPart_06mdfck_di_label" style="display: block;" transform="matrix(1 0 0 1 654 242)"><g class="djs-visual"><text class="djs-label" style="font-family: Arial, sans-serif; font-size: 11px;" transform="translate(-19.64120101928711,0)"><tspan x="19.641202926635742" y="8.88888931274414">[complete]</tspan></text></g><rect x="0" y="0" width="51" height="12" class="djs-hit" style="fill: none; stroke-opacity: 0; stroke: white; stroke-width: 15px;"/><rect x="-6" y="-6" width="63" height="24" class="djs-outline" style="fill: none;"/></g></g><g class="djs-group"><g class="djs-element djs-connection" data-element-id="PlanItemOnPart_1ogzanm_di" style="display: block;"><g class="djs-visual"><path d="m  628,414L628,495 L680,495 " style="fill: none; stroke-width: 1.5px; stroke: black; stroke-dasharray: 10, 5, 2, 5, 2, 5;"/></g><polyline points="628,414 628,495 680,495 " class="djs-hit" style="fill: none; stroke-opacity: 0; stroke: white; stroke-width: 15px;"/><rect x="622" y="408" width="64" height="93" class="djs-outline" style="fill: none;"/></g></g><g class="djs-group"><g class="djs-element djs-shape" data-element-id="PlanItemOnPart_1ogzanm_di_label" style="display: block;" transform="matrix(1 0 0 1 633 481)"><g class="djs-visual"><text class="djs-label" style="font-family: Arial, sans-serif; font-size: 11px;" transform="translate(-19.64120101928711,0)"><tspan x="19.641202926635742" y="8.88888931274414">[complete]</tspan></text></g><rect x="0" y="0" width="51" height="12" class="djs-hit" style="fill: none; stroke-opacity: 0; stroke: white; stroke-width: 15px;"/><rect x="-6" y="-6" width="63" height="24" class="djs-outline" style="fill: none;"/></g></g><g class="djs-group"><g class="djs-element djs-connection" data-element-id="PlanItemOnPart_0z87p8t_di" style="display: block;"><g class="djs-visual"><path d="m  1135,524L1170,524 L1170,489 L1204,489 " style="fill: none; stroke-width: 1.5px; stroke: black; stroke-dasharray: 10, 5, 2, 5, 2, 5;"/></g><polyline points="1135,524 1170,524 1170,489 1204,489 " class="djs-hit" style="fill: none; stroke-opacity: 0; stroke: white; stroke-width: 15px;"/><rect x="1129" y="483" width="81" height="47" class="djs-outline" style="fill: none;"/></g></g><g class="djs-group"><g class="djs-element djs-shape" data-element-id="PlanItemOnPart_0z87p8t_di_label" style="display: block;" transform="matrix(1 0 0 1 1157 504)"><g class="djs-visual"><text class="djs-label" style="font-family: Arial, sans-serif; font-size: 11px;" transform="translate(-28.501155853271484,0)"><tspan x="28.501155853271484" y="8.88888931274414">[occur]</tspan></text></g><rect x="0" y="0" width="33" height="12" class="djs-hit" style="fill: none; stroke-opacity: 0; stroke: white; stroke-width: 15px;"/><rect x="-6" y="-6" width="45" height="24" class="djs-outline" style="fill: none;"/></g></g><g class="djs-group"><g class="djs-element djs-connection" data-element-id="PlanItemOnPart_0pc2bmz_di" style="display: block;"><g class="djs-visual"><path d="m  690,533L668,533 L668,558 L646,558 " style="fill: none; stroke-width: 1.5px; stroke: black; stroke-dasharray: 10, 5, 2, 5, 2, 5;"/></g><polyline points="690,533 668,533 668,558 646,558 " class="djs-hit" style="fill: none; stroke-opacity: 0; stroke: white; stroke-width: 15px;"/><rect x="640" y="527" width="56" height="37" class="djs-outline" style="fill: none;"/></g></g><g class="djs-group"><g class="djs-element djs-shape" data-element-id="PlanItemOnPart_0pc2bmz_di_label" style="display: block;" transform="matrix(1 0 0 1 645 540)"><g class="djs-visual"><text class="djs-label" style="font-family: Arial, sans-serif; font-size: 11px;" transform="translate(-19.64120101928711,0)"><tspan x="19.641202926635742" y="8.88888931274414">[complete]</tspan></text></g><rect x="0" y="0" width="51" height="12" class="djs-hit" style="fill: none; stroke-opacity: 0; stroke: white; stroke-width: 15px;"/><rect x="-6" y="-6" width="63" height="24" class="djs-outline" style="fill: none;"/></g></g><g class="djs-group"><g class="djs-element djs-connection" data-element-id="PlanItemOnPart_1bn9yqb_di" style="display: block;"><g class="djs-visual"><path d="m  639,696L639,666 " style="fill: none; stroke-width: 1.5px; stroke: black; stroke-dasharray: 10, 5, 2, 5, 2, 5;"/></g><polyline points="639,696 639,666 " class="djs-hit" style="fill: none; stroke-opacity: 0; stroke: white; stroke-width: 15px;"/><rect x="633" y="660" width="12" height="42" class="djs-outline" style="fill: none;"/></g></g><g class="djs-group"><g class="djs-element djs-shape" data-element-id="PlanItemOnPart_1bn9yqb_di_label" style="display: block;" transform="matrix(1 0 0 1 646 680)"><g class="djs-visual"><text class="djs-label" style="font-family: Arial, sans-serif; font-size: 11px;" transform="translate(-28.501155853271484,0)"><tspan x="28.501155853271484" y="8.88888931274414">[occur]</tspan></text></g><rect x="0" y="0" width="33" height="12" class="djs-hit" style="fill: none; stroke-opacity: 0; stroke: white; stroke-width: 15px;"/><rect x="-6" y="-6" width="45" height="24" class="djs-outline" style="fill: none;"/></g></g><g class="djs-group"><g class="djs-element djs-connection" data-element-id="CaseFileItemOnPart_15s54en_di" style="display: block;"><g class="djs-visual"><path d="m  887,500L887,428 " style="fill: none; stroke-width: 1.5px; stroke: black; stroke-dasharray: 10, 5, 2, 5, 2, 5;"/></g><polyline points="887,500 887,428 " class="djs-hit" style="fill: none; stroke-opacity: 0; stroke: white; stroke-width: 15px;"/><rect x="881" y="422" width="12" height="84" class="djs-outline" style="fill: none;"/></g></g><g class="djs-group"><g class="djs-element djs-shape" data-element-id="CaseFileItemOnPart_15s54en_di_label" style="display: block;" transform="matrix(1 0 0 1 892 458)"><g class="djs-visual"><text class="djs-label" style="font-family: Arial, sans-serif; font-size: 11px;" transform="translate(-25.133100509643555,0)"><tspan x="25.133100509643555" y="8.88888931274414">[update]</tspan></text></g><rect x="0" y="0" width="40" height="12" class="djs-hit" style="fill: none; stroke-opacity: 0; stroke: white; stroke-width: 15px;"/><rect x="-6" y="-6" width="52" height="24" class="djs-outline" style="fill: none;"/></g></g><g class="djs-group"><g class="djs-element djs-connection" data-element-id="CaseFileItemOnPart_0sb68t9_di" style="display: block;"><g class="djs-visual"><path d="m  879,550L879,611 L699,611 " style="fill: none; stroke-width: 1.5px; stroke: black; stroke-dasharray: 10, 5, 2, 5, 2, 5;"/></g><polyline points="879,550 879,611 699,611 " class="djs-hit" style="fill: none; stroke-opacity: 0; stroke: white; stroke-width: 15px;"/><rect x="693" y="544" width="192" height="73" class="djs-outline" style="fill: none;"/></g></g><g class="djs-group"><g class="djs-element djs-shape" data-element-id="CaseFileItemOnPart_0sb68t9_di_label" style="display: block;" transform="matrix(1 0 0 1 809 555)"><g class="djs-visual"><text class="djs-label" style="font-family: Arial, sans-serif; font-size: 11px;" transform="translate(-25.133100509643555,0)"><tspan x="25.133100509643555" y="8.88888931274414">[update]</tspan></text></g><rect x="0" y="0" width="40" height="12" class="djs-hit" style="fill: none; stroke-opacity: 0; stroke: white; stroke-width: 15px;"/><rect x="-6" y="-6" width="52" height="24" class="djs-outline" style="fill: none;"/></g></g><g class="djs-group"><g class="djs-element djs-connection" data-element-id="PlanItemOnPart_03ipxfx_di" style="display: block;"><g class="djs-visual"><path d="m  740,453L740,375 L801,375 " style="fill: none; stroke-width: 1.5px; stroke: black; stroke-dasharray: 10, 5, 2, 5, 2, 5;"/></g><polyline points="740,453 740,375 801,375 " class="djs-hit" style="fill: none; stroke-opacity: 0; stroke: white; stroke-width: 15px;"/><rect x="734" y="369" width="73" height="90" class="djs-outline" style="fill: none;"/></g></g><g class="djs-group"><g class="djs-element djs-shape" data-element-id="PlanItemOnPart_03ipxfx_di_label" style="display: block;" transform="matrix(1 0 0 1 745 358)"><g class="djs-visual"><text class="djs-label" style="font-family: Arial, sans-serif; font-size: 11px;" transform="translate(-19.64120101928711,0)"><tspan x="19.641202926635742" y="8.88888931274414">[complete]</tspan></text></g><rect x="0" y="0" width="51" height="12" class="djs-hit" style="fill: none; stroke-opacity: 0; stroke: white; stroke-width: 15px;"/><rect x="-6" y="-6" width="63" height="24" class="djs-outline" style="fill: none;"/></g></g><g class="djs-group"><g class="djs-element djs-connection" data-element-id="PlanItemOnPart_0rnueuq_di" style="display: block;"><g class="djs-visual"><path d="m  861,414L861,490 L800,490 " style="fill: none; stroke-width: 1.5px; stroke: black; stroke-dasharray: 10, 5, 2, 5, 2, 5;"/></g><polyline points="861,414 861,490 800,490 " class="djs-hit" style="fill: none; stroke-opacity: 0; stroke: white; stroke-width: 15px;"/><rect x="794" y="408" width="73" height="88" class="djs-outline" style="fill: none;"/></g></g><g class="djs-group"><g class="djs-element djs-shape" data-element-id="PlanItemOnPart_0rnueuq_di_label" style="display: block;" transform="matrix(1 0 0 1 788 417)"><g class="djs-visual"><text class="djs-label" style="font-family: Arial, sans-serif; font-size: 11px;" transform="translate(-8.970703125,0)"><tspan x="8.970703125" y="8.88888931274414">Se pagamento </tspan><tspan x="16.61667251586914" y="20.740741729736328">non riuscito </tspan><tspan x="19.641202926635742" y="32.592594146728516">[complete]</tspan></text></g><rect x="0" y="0" width="75" height="36" class="djs-hit" style="fill: none; stroke-opacity: 0; stroke: white; stroke-width: 15px;"/><rect x="-6" y="-6" width="87" height="48" class="djs-outline" style="fill: none;"/></g></g><g class="djs-group"><g class="djs-element djs-connection" data-element-id="PlanItemOnPart_0307i00_di" style="display: block;"><g class="djs-visual"><path d="m  517,374L543,374 L543,375 L568,375 " style="fill: none; stroke-width: 1.5px; stroke: black; stroke-dasharray: 10, 5, 2, 5, 2, 5;"/></g><polyline points="517,374 543,374 543,375 568,375 " class="djs-hit" style="fill: none; stroke-opacity: 0; stroke: white; stroke-width: 15px;"/><rect x="511" y="368" width="63" height="13" class="djs-outline" style="fill: none;"/></g></g><g class="djs-group"><g class="djs-element djs-shape" data-element-id="PlanItemOnPart_0307i00_di_label" style="display: block;" transform="matrix(1 0 0 1 529 365)"><g class="djs-visual"><text class="djs-label" style="font-family: Arial, sans-serif; font-size: 11px;" transform="translate(-28.501155853271484,0)"><tspan x="28.501155853271484" y="8.88888931274414">[occur]</tspan></text></g><rect x="0" y="0" width="33" height="12" class="djs-hit" style="fill: none; stroke-opacity: 0; stroke: white; stroke-width: 15px;"/><rect x="-6" y="-6" width="45" height="24" class="djs-outline" style="fill: none;"/></g></g><g class="djs-group"><g class="djs-element djs-connection" data-element-id="PlanItemOnPart_0vm7kqk_di" style="display: block;"><g class="djs-visual"><path d="m  341,524L389,524 L389,525 L436,525 " style="fill: none; stroke-width: 1.5px; stroke: black; stroke-dasharray: 10, 5, 2, 5, 2, 5;"/></g><polyline points="341,524 389,524 389,525 436,525 " class="djs-hit" style="fill: none; stroke-opacity: 0; stroke: white; stroke-width: 15px;"/><rect x="335" y="518" width="107" height="13" class="djs-outline" style="fill: none;"/></g></g><g class="djs-group"><g class="djs-element djs-shape" data-element-id="PlanItemOnPart_0vm7kqk_di_label" style="display: block;" transform="matrix(1 0 0 1 363 515)"><g class="djs-visual"><text class="djs-label" style="font-family: Arial, sans-serif; font-size: 11px;" transform="translate(-19.64120101928711,0)"><tspan x="19.641202926635742" y="8.88888931274414">[complete]</tspan></text></g><rect x="0" y="0" width="51" height="12" class="djs-hit" style="fill: none; stroke-opacity: 0; stroke: white; stroke-width: 15px;"/><rect x="-6" y="-6" width="63" height="24" class="djs-outline" style="fill: none;"/></g></g><g class="djs-group"><g class="djs-element djs-connection" data-element-id="CaseFileItemOnPart_1neqvkh_di" style="display: block;"><g class="djs-visual"><path d="m  897,525L918,525 L918,524 L939,524 " style="fill: none; stroke-width: 1.5px; stroke: black; stroke-dasharray: 10, 5, 2, 5, 2, 5;"/></g><polyline points="897,525 918,525 918,524 939,524 " class="djs-hit" style="fill: none; stroke-opacity: 0; stroke: white; stroke-width: 15px;"/><rect x="891" y="518" width="54" height="13" class="djs-outline" style="fill: none;"/></g></g><g class="djs-group"><g class="djs-element djs-shape" data-element-id="CaseFileItemOnPart_1neqvkh_di_label" style="display: block;" transform="matrix(1 0 0 1 898 512)"><g class="djs-visual"><text class="djs-label" style="font-family: Arial, sans-serif; font-size: 11px;" transform="translate(-25.133100509643555,0)"><tspan x="25.133100509643555" y="8.88888931274414">[update]</tspan></text></g><rect x="0" y="0" width="40" height="12" class="djs-hit" style="fill: none; stroke-opacity: 0; stroke: white; stroke-width: 15px;"/><rect x="-6" y="-6" width="52" height="24" class="djs-outline" style="fill: none;"/></g></g><g class="djs-group"><g class="djs-element djs-connection" data-element-id="PlanItemOnPart_00u6vfe_di" style="display: block;"><g class="djs-visual"><path d="m  1035,524L959,524 " style="fill: none; stroke-width: 1.5px; stroke: black; stroke-dasharray: 10, 5, 2, 5, 2, 5;"/></g><polyline points="1035,524 959,524 " class="djs-hit" style="fill: none; stroke-opacity: 0; stroke: white; stroke-width: 15px;"/><rect x="953" y="518" width="88" height="12" class="djs-outline" style="fill: none;"/></g></g><g class="djs-group"><g class="djs-element djs-shape" data-element-id="PlanItemOnPart_00u6vfe_di_label" style="display: block;" transform="matrix(1 0 0 1 984 500)"><g class="djs-visual"><text class="djs-label" style="font-family: Arial, sans-serif; font-size: 11px;" transform="translate(-28.501155853271484,0)"><tspan x="28.501155853271484" y="8.88888931274414">[occur]</tspan></text></g><rect x="0" y="0" width="33" height="12" class="djs-hit" style="fill: none; stroke-opacity: 0; stroke: white; stroke-width: 15px;"/><rect x="-6" y="-6" width="45" height="24" class="djs-outline" style="fill: none;"/></g></g></g></g></svg>