<svg width="100" height="100" viewBox="0 0 100 100" fill="none" xmlns="http://www.w3.org/2000/svg">
<path d="M50 4.23242C51.1231 6.27309 52.7241 9.09737 54.6396 12.2363C58.4489 18.4784 63.5885 26.112 68.7383 31.2617C73.888 36.4115 81.5216 41.5511 87.7637 45.3604C90.9022 47.2757 93.726 48.8769 95.7666 50C93.726 51.1231 90.9022 52.7243 87.7637 54.6396C81.5216 58.4489 73.888 63.5885 68.7383 68.7383C63.5885 73.888 58.4489 81.5216 54.6396 87.7637C52.7243 90.9022 51.1231 93.726 50 95.7666C48.8769 93.726 47.2757 90.9022 45.3604 87.7637C41.5511 81.5216 36.4115 73.888 31.2617 68.7383C26.112 63.5885 18.4784 58.4489 12.2363 54.6396C9.09737 52.7241 6.27309 51.1231 4.23242 50C6.27309 48.8769 9.09737 47.2759 12.2363 45.3604C18.4784 41.5511 26.112 36.4115 31.2617 31.2617C36.4115 26.112 41.5511 18.4784 45.3604 12.2363C47.2759 9.09737 48.8769 6.27309 50 4.23242Z" stroke="#1B5E92" stroke-width="4"/>
</svg>
