<svg width="252" height="20" viewBox="0 0 252 20" fill="none" xmlns="http://www.w3.org/2000/svg">
<path d="M84 0L86.2451 6.90983H93.5106L87.6327 11.1803L89.8779 18.0902L84 13.8197L78.1221 18.0902L80.3673 11.1803L74.4894 6.90983H81.7549L84 0Z" fill="#FF8D58"/>
<path d="M105 0L107.245 6.90983H114.511L108.633 11.1803L110.878 18.0902L105 13.8197L99.1221 18.0902L101.367 11.1803L95.4894 6.90983H102.755L105 0Z" fill="#FF8D58"/>
<path d="M126 0L128.245 6.90983H135.511L129.633 11.1803L131.878 18.0902L126 13.8197L120.122 18.0902L122.367 11.1803L116.489 6.90983H123.755L126 0Z" fill="#FF8D58"/>
<path d="M147 0L149.245 6.90983H156.511L150.633 11.1803L152.878 18.0902L147 13.8197L141.122 18.0902L143.367 11.1803L137.489 6.90983H144.755L147 0Z" fill="#FF8D58"/>
<path d="M168 0L170.245 6.90983H177.511L171.633 11.1803L173.878 18.0902L168 13.8197L162.122 18.0902L164.367 11.1803L158.489 6.90983H165.755L168 0Z" fill="#FF8D58"/>
</svg>
